<?xml version="1.0" encoding="UTF-8"?> <svg xmlns="http://www.w3.org/2000/svg" width="264" height="96.733" viewBox="0 0 264 96.733"><g id="Group_270" data-name="Group 270" transform="translate(0 -0.004)"><path id="Path_810" data-name="Path 810" d="M17.578,17.829a4.512,4.512,0,0,1-1.607,3.243A5.84,5.84,0,0,1,11.9,22.456,7.844,7.844,0,0,1,8.47,21.72,6.574,6.574,0,0,1,6.03,19.736,9.639,9.639,0,0,1,4.6,16.861,11.7,11.7,0,0,1,4.1,13.425a12.027,12.027,0,0,1,.92-4.82A7.661,7.661,0,0,1,7.715,5.3,7.278,7.278,0,0,1,11.9,4.094,6.272,6.272,0,0,1,14.21,4.5a4.333,4.333,0,0,1,1.626,1.045A5.078,5.078,0,0,1,16.8,7a4.6,4.6,0,0,1,.387,1.636l.019.348h4.123l-.039-.4a8.245,8.245,0,0,0-2.972-5.808A9.827,9.827,0,0,0,11.857.59a12.2,12.2,0,0,0-4.346.765A10.39,10.39,0,0,0,4.153,3.407,12.627,12.627,0,0,0,1.829,6.349,13.535,13.535,0,0,0,.436,9.824,15.284,15.284,0,0,0,0,13.464a13.848,13.848,0,0,0,.29,2.788,16.672,16.672,0,0,0,.861,2.836A11.387,11.387,0,0,0,2.71,21.779,12.538,12.538,0,0,0,4.956,24a9.727,9.727,0,0,0,3.068,1.549,12.587,12.587,0,0,0,3.843.561A10.757,10.757,0,0,0,16.5,25.108a9.276,9.276,0,0,0,3.523-2.9,8.836,8.836,0,0,0,1.655-4.317l.048-.407H17.6Z" transform="translate(0 -0.019)" fill="#1b1b1b"></path><path id="Path_811" data-name="Path 811" d="M43.2,22.06H32.144V14.791H42.366V11.229H32.115V4.492H42.821V.93H28.04V25.719l15.158.01Z" transform="translate(-0.899 -0.03)" fill="#1b1b1b"></path><path id="Path_812" data-name="Path 812" d="M53.891,7.26,67.442,25.729H71.43L71.44.93H67.529V19.321L53.978.93h-4v24.8h3.911Z" transform="translate(-1.602 -0.03)" fill="#1b1b1b"></path><path id="Path_813" data-name="Path 813" d="M84.382,25.729h4.1V4.5H95.6V.93H77.2V4.5h7.182Z" transform="translate(-2.474 -0.03)" fill="#1b1b1b"></path><path id="Path_814" data-name="Path 814" d="M116.628,22.06H105.564V14.791h10.222V11.229H105.535V4.5H116.25V.93H101.46v24.8h15.168Z" transform="translate(-3.251 -0.03)" fill="#1b1b1b"></path><path id="Path_815" data-name="Path 815" d="M127.364,15.237h.716L137,25.729h5.188L132.6,14.695a9.945,9.945,0,0,0,2.672-1.026,7.059,7.059,0,0,0,2.439-2.313,5.982,5.982,0,0,0,.958-3.33,6.517,6.517,0,0,0-.513-2.584,5.909,5.909,0,0,0-1.413-2.023,8.385,8.385,0,0,0-2.081-1.384,10.88,10.88,0,0,0-2.526-.823,14.586,14.586,0,0,0-2.8-.271H123.26V25.729h4.1Zm5-4.143a6.684,6.684,0,0,1-1.394.4,10.791,10.791,0,0,1-1.51.145l-2.159.029V4.5l2.12.029a9.622,9.622,0,0,1,1.878.2,6.548,6.548,0,0,1,1.646.59,2.921,2.921,0,0,1,1.181,1.094,3.2,3.2,0,0,1,.436,1.694,3.141,3.141,0,0,1-.281,1.336,2.847,2.847,0,0,1-.755.978A4.675,4.675,0,0,1,132.368,11.094Z" transform="translate(-3.95 -0.03)" fill="#1b1b1b"></path><path id="Path_816" data-name="Path 816" d="M13.052,50.059a7.059,7.059,0,0,0,2.439-2.313,5.982,5.982,0,0,0,.958-3.33,6.517,6.517,0,0,0-.513-2.584,5.909,5.909,0,0,0-1.413-2.023,8.385,8.385,0,0,0-2.081-1.384A10.881,10.881,0,0,0,9.916,37.6a14.586,14.586,0,0,0-2.8-.271H1.04V62.119h4.1V51.627H5.86l8.925,10.493h5.188L10.381,51.085A9.945,9.945,0,0,0,13.052,50.059Zm-1-4.211a2.847,2.847,0,0,1-.755.978,4.506,4.506,0,0,1-1.162.668,6.52,6.52,0,0,1-1.394.4,10.792,10.792,0,0,1-1.51.145l-2.159.029V40.9l2.12.029a9.622,9.622,0,0,1,1.878.2,6.549,6.549,0,0,1,1.646.59A2.921,2.921,0,0,1,11.9,42.818a3.2,3.2,0,0,1,.436,1.694A2.877,2.877,0,0,1,12.055,45.848Z" transform="translate(-0.033 -1.196)" fill="#1b1b1b"></path><path id="Path_817" data-name="Path 817" d="M39.9,58.46H28.834V51.191H39.056V47.629H28.805V40.892H39.52V37.33H24.73V62.119H39.9Z" transform="translate(-0.792 -1.196)" fill="#1b1b1b"></path><path id="Path_818" data-name="Path 818" d="M62.06,41.686a6.72,6.72,0,0,0-2.11-2.449,9.995,9.995,0,0,0-3.02-1.423,13.246,13.246,0,0,0-3.62-.484H46.67V62.119h4.143V53.03h2.226a13.674,13.674,0,0,0,3.678-.484,10.3,10.3,0,0,0,3.1-1.423,6.859,6.859,0,0,0,2.207-2.517,7.554,7.554,0,0,0,.813-3.543A7.3,7.3,0,0,0,62.06,41.686Zm-3.339,3.378a4.2,4.2,0,0,1-.377,1.829,3.441,3.441,0,0,1-.949,1.249,5.143,5.143,0,0,1-1.384.774,7.127,7.127,0,0,1-1.5.407,10.193,10.193,0,0,1-1.433.106l-2.284.029V40.766l2.681.029a8.519,8.519,0,0,1,1.287.126,6.619,6.619,0,0,1,1.4.416,5.373,5.373,0,0,1,1.307.755,3.386,3.386,0,0,1,.9,1.21A4.4,4.4,0,0,1,58.721,45.064Z" transform="translate(-1.496 -1.196)" fill="#1b1b1b"></path><path id="Path_819" data-name="Path 819" d="M68.72,62.119h4.1V51.627h.716l8.925,10.493h5.188L78.061,51.085a9.945,9.945,0,0,0,2.672-1.026,7.059,7.059,0,0,0,2.439-2.313,5.982,5.982,0,0,0,.958-3.33,6.517,6.517,0,0,0-.513-2.584A5.909,5.909,0,0,0,82.2,39.808a8.385,8.385,0,0,0-2.081-1.384A10.881,10.881,0,0,0,77.6,37.6a13.852,13.852,0,0,0-2.8-.271H68.72Zm4.046-14.055V40.9l2.12.029a9.622,9.622,0,0,1,1.878.2,6.549,6.549,0,0,1,1.646.59,2.921,2.921,0,0,1,1.181,1.094,3.2,3.2,0,0,1,.436,1.694,3.141,3.141,0,0,1-.281,1.336,2.847,2.847,0,0,1-.755.978,4.506,4.506,0,0,1-1.162.668,6.683,6.683,0,0,1-1.394.4,10.791,10.791,0,0,1-1.51.145Z" transform="translate(-2.202 -1.196)" fill="#1b1b1b"></path><path id="Path_820" data-name="Path 820" d="M93.751,40.62a13.485,13.485,0,0,0-2.42,4.1,13.632,13.632,0,0,0-.871,4.83,14.561,14.561,0,0,0,.978,5.372A12.356,12.356,0,0,0,94.08,59.1a12.193,12.193,0,0,0,3.881,2.633,11.982,11.982,0,0,0,4.733.949,12.518,12.518,0,0,0,4.733-.9,12.165,12.165,0,0,0,3.93-2.526,11.728,11.728,0,0,0,2.71-4.114,14.924,14.924,0,0,0,.116-10.415,13.041,13.041,0,0,0-2.449-4.143,11.389,11.389,0,0,0-3.92-2.836,12.388,12.388,0,0,0-5.091-1.055,12.084,12.084,0,0,0-5.082,1.074A11.287,11.287,0,0,0,93.751,40.62Zm.823,9.012a11.139,11.139,0,0,1,.987-4.733,8.127,8.127,0,0,1,2.855-3.388,7.478,7.478,0,0,1,4.288-1.268,7.637,7.637,0,0,1,5.934,2.565,9.873,9.873,0,0,1,2.323,6.863,11.912,11.912,0,0,1-.552,3.659,9.622,9.622,0,0,1-1.568,3,7.2,7.2,0,0,1-2.584,2.033,8.137,8.137,0,0,1-3.552.755,7.746,7.746,0,0,1-4.288-1.22,7.861,7.861,0,0,1-2.846-3.359A11.548,11.548,0,0,1,94.574,49.632Z" transform="translate(-2.899 -1.176)" fill="#1b1b1b"></path><path id="Path_821" data-name="Path 821" d="M137.287,40.573a13.509,13.509,0,0,0-4.356-2.4,16.7,16.7,0,0,0-5.314-.832H121.48V62.129h5.895a17.908,17.908,0,0,0,5.827-.9,12.541,12.541,0,0,0,4.424-2.517,11.1,11.1,0,0,0,2.749-3.862,12.315,12.315,0,0,0,.958-4.9,13.129,13.129,0,0,0-1.074-5.382A10.882,10.882,0,0,0,137.287,40.573Zm-.058,9.409a8.146,8.146,0,0,1-2.546,6.272,10.542,10.542,0,0,1-7.182,2.41l-1.917.029V40.844l2.226.029a11.072,11.072,0,0,1,4.075.745,8.287,8.287,0,0,1,2.952,1.955,8.639,8.639,0,0,1,1.771,2.865A9.84,9.84,0,0,1,137.229,49.981Z" transform="translate(-3.893 -1.196)" fill="#1b1b1b"></path><path id="Path_822" data-name="Path 822" d="M162.094,52.827c0,.329-.01.629-.029.891s-.058.619-.136,1.084a6.261,6.261,0,0,1-.31,1.191,6.007,6.007,0,0,1-.6,1.1,3.947,3.947,0,0,1-.92.958,4.723,4.723,0,0,1-1.384.649,6.712,6.712,0,0,1-1.946.261,5.179,5.179,0,0,1-3.862-1.433c-.929-.958-1.4-2.526-1.4-4.666V37.34h-4.1V52.8c0,3.214.852,5.682,2.546,7.337a9.352,9.352,0,0,0,6.824,2.5,11.389,11.389,0,0,0,3.543-.523,8.744,8.744,0,0,0,2.952-1.655,7.554,7.554,0,0,0,2.1-3.126,12.979,12.979,0,0,0,.736-4.6V37.33h-4.007Z" transform="translate(-4.723 -1.196)" fill="#1b1b1b"></path><path id="Path_823" data-name="Path 823" d="M189.6,54.229a4.512,4.512,0,0,1-1.607,3.243,5.84,5.84,0,0,1-4.075,1.384,7.844,7.844,0,0,1-3.427-.736,6.574,6.574,0,0,1-2.439-1.984,9.416,9.416,0,0,1-1.433-2.875,11.7,11.7,0,0,1-.494-3.436,12.027,12.027,0,0,1,.92-4.82,7.55,7.55,0,0,1,2.691-3.3,7.278,7.278,0,0,1,4.182-1.21,6.272,6.272,0,0,1,2.313.407,4.333,4.333,0,0,1,1.626,1.045,5.078,5.078,0,0,1,.968,1.452,4.6,4.6,0,0,1,.387,1.636l.019.348h4.123l-.039-.4a8.245,8.245,0,0,0-2.972-5.808,9.827,9.827,0,0,0-6.466-2.188,12.2,12.2,0,0,0-4.346.765,10.316,10.316,0,0,0-3.368,2.042,12.627,12.627,0,0,0-2.323,2.943,13.534,13.534,0,0,0-1.394,3.475,15.4,15.4,0,0,0-.436,3.64,13.847,13.847,0,0,0,.29,2.788,16.673,16.673,0,0,0,.861,2.836,11.388,11.388,0,0,0,1.558,2.691,12.538,12.538,0,0,0,2.246,2.226,9.949,9.949,0,0,0,3.068,1.558,12.588,12.588,0,0,0,3.843.561,10.757,10.757,0,0,0,4.636-1.007,9.276,9.276,0,0,0,3.523-2.9,8.836,8.836,0,0,0,1.655-4.317l.048-.407h-4.133Z" transform="translate(-5.512 -1.185)" fill="#1b1b1b"></path><path id="Path_824" data-name="Path 824" d="M197.41,40.9h7.173V62.129H208.7V40.9h7.1V37.33H197.41Z" transform="translate(-6.326 -1.196)" fill="#1b1b1b"></path><path id="Path_825" data-name="Path 825" d="M221.76,62.129h4.1l.01-12.467V37.33H221.76v24.8Z" transform="translate(-7.106 -1.196)" fill="#1b1b1b"></path><path id="Path_826" data-name="Path 826" d="M241.726,57.018,235.483,37.33H231.34l8.111,24.8h4.472l7.753-24.8h-4.143Z" transform="translate(-7.413 -1.196)" fill="#1b1b1b"></path><path id="Path_827" data-name="Path 827" d="M261.174,58.46V51.191H271.4V47.629H261.145V40.9H271.86V37.33H257.07v24.8h15.168V58.46Z" transform="translate(-8.238 -1.196)" fill="#1b1b1b"></path><path id="Path_828" data-name="Path 828" d="M13.052,86.449a7.059,7.059,0,0,0,2.439-2.313,5.982,5.982,0,0,0,.958-3.33,6.517,6.517,0,0,0-.513-2.584A5.91,5.91,0,0,0,14.524,76.2a8.385,8.385,0,0,0-2.081-1.384,10.881,10.881,0,0,0-2.526-.823,14.586,14.586,0,0,0-2.8-.271H1.04V98.509h4.1V88.017H5.86l8.925,10.493h5.188L10.381,87.475A9.752,9.752,0,0,0,13.052,86.449Zm-1-4.211a2.847,2.847,0,0,1-.755.978,4.506,4.506,0,0,1-1.162.668,6.032,6.032,0,0,1-1.394.407,10.8,10.8,0,0,1-1.51.145l-2.159.029V77.3l2.12.029a9.623,9.623,0,0,1,1.878.2,6.548,6.548,0,0,1,1.646.59A2.921,2.921,0,0,1,11.9,79.218a3.2,3.2,0,0,1,.436,1.694A2.811,2.811,0,0,1,12.055,82.238Z" transform="translate(-0.033 -2.362)" fill="#1b1b1b"></path><path id="Path_829" data-name="Path 829" d="M25.05,98.519h4.1V73.73h-4.1V98.519Z" transform="translate(-0.803 -2.363)" fill="#1b1b1b"></path><path id="Path_830" data-name="Path 830" d="M78.979,84.242l-11.025-.01V73.73H63.84V98.519h4.1l.01-10.715H78.979V98.519h4.114V73.73H78.979Z" transform="translate(-2.046 -2.363)" fill="#1b1b1b"></path><path id="Path_831" data-name="Path 831" d="M88.79,77.292h7.173V98.519h4.114V77.292h7.1V73.73H88.79Z" transform="translate(-2.845 -2.363)" fill="#1b1b1b"></path><path id="Path_832" data-name="Path 832" d="M127.138,86.71a10.816,10.816,0,0,0-2.468-1.423,20.565,20.565,0,0,0-3.262-1c-.726-.155-1.365-.319-1.878-.465a11.482,11.482,0,0,1-1.539-.571,4.844,4.844,0,0,1-1.2-.736,2.933,2.933,0,0,1-.707-.949,2.794,2.794,0,0,1-.271-1.258,3.373,3.373,0,0,1,1.181-2.623,4.553,4.553,0,0,1,3.156-1.074,5.664,5.664,0,0,1,2.149.4,3.7,3.7,0,0,1,1.6,1.287,4.087,4.087,0,0,1,.726,2.217l.019.348h4.114l-.019-.387a7.309,7.309,0,0,0-2.555-5.43,8.908,8.908,0,0,0-5.837-1.926,10.847,10.847,0,0,0-4.327.832A7.266,7.266,0,0,0,112.89,76.5a6.886,6.886,0,0,0-1.191,4,6.316,6.316,0,0,0,.649,2.826,6.427,6.427,0,0,0,1.8,2.188A11.349,11.349,0,0,0,116.684,87a16.148,16.148,0,0,0,3.1.978,13.165,13.165,0,0,1,4.356,1.529,2.77,2.77,0,0,1,1.152,2.468,3.132,3.132,0,0,1-.223,1.123,3.756,3.756,0,0,1-.726,1.142,3.526,3.526,0,0,1-1.442.91,6.743,6.743,0,0,1-2.333.368,6.338,6.338,0,0,1-2.149-.339,4.263,4.263,0,0,1-1.423-.8,4.067,4.067,0,0,1-.842-1.133,5.177,5.177,0,0,1-.455-1.22,6.567,6.567,0,0,1-.136-1.142l-.01-.358H111.68l.01.377a9.324,9.324,0,0,0,.581,3.223,7.193,7.193,0,0,0,1.423,2.371,7.275,7.275,0,0,0,2.042,1.51,8.823,8.823,0,0,0,2.323.832,11.355,11.355,0,0,0,2.381.242,9.83,9.83,0,0,0,6.514-2.042,7.2,7.2,0,0,0,1.9-8.208A5.931,5.931,0,0,0,127.138,86.71Z" transform="translate(-3.579 -2.343)" fill="#1b1b1b"></path><path id="Path_833" data-name="Path 833" d="M43.489,90.105H53.527a5.372,5.372,0,0,1-1.8,3.785,7.025,7.025,0,0,1-4.859,1.675,6.94,6.94,0,0,1-5.8-2.468,11.06,11.06,0,0,1-1.965-6.96,12.167,12.167,0,0,1,.939-4.869,7.625,7.625,0,0,1,7.25-4.685,5.519,5.519,0,0,1,3.92,1.394,4.747,4.747,0,0,1,1.558,3.446l.01.348H56.9l-.029-.387A8.006,8.006,0,0,0,55.4,77.222a8.912,8.912,0,0,0-3.446-2.865,10.824,10.824,0,0,0-4.666-1.007,12.66,12.66,0,0,0-5.159,1.036,10.968,10.968,0,0,0-3.9,2.817,12.992,12.992,0,0,0-2.381,4.085A14.184,14.184,0,0,0,35,86.175a15.8,15.8,0,0,0,.755,4.946,12.629,12.629,0,0,0,2.2,4.075,10.067,10.067,0,0,0,3.746,2.8,12.418,12.418,0,0,0,5.111,1.016,12.123,12.123,0,0,0,3.959-.639,10.56,10.56,0,0,0,3.33-1.849,8.95,8.95,0,0,0,2.381-3.156,11.173,11.173,0,0,0,.978-4.317l.029-2.275H43.508Z" transform="translate(-1.122 -2.35)" fill="#1b1b1b"></path><path id="Path_834" data-name="Path 834" d="M197.91,5.91a2.35,2.35,0,0,0-.784.242,5.248,5.248,0,0,0-.949.726,34.433,34.433,0,0,0-3.746,5.014c-.387.668-1.3,2.255-1.723,3.02-.184.329-.4.707-.658,1.162.155-.387.29-.736.426-1.074.416-1.055,1.355-3.185,1.955-4.743a10.53,10.53,0,0,0,.745-2.643,1.537,1.537,0,0,0-.348-1.374,1.392,1.392,0,0,0-1.171-.329,3.051,3.051,0,0,0-1.268.484,14.79,14.79,0,0,0-3.117,3.3l-.106.145.145.1A.533.533,0,0,1,187.4,10c.194.155.494.378.745.155a24.488,24.488,0,0,1,2.033-2.342c.3-.29.494-.455.629-.378.165.1.106.378.077.5a3.712,3.712,0,0,1-.2.658q-1.22,3.194-2.459,6.4l-2.091,5.411h.832c.484,0,.929,0,1.423.01h.019a.518.518,0,0,0,.5-.3q1.321-2.323,2.652-4.637c.271-.465.532-.939.794-1.4.474-.852.968-1.742,1.51-2.594a6.411,6.411,0,0,1,3.959-3.214,2.657,2.657,0,0,0,.949-.571.928.928,0,0,0,.213-1.191A1.035,1.035,0,0,0,197.91,5.91Z" transform="translate(-5.965 -0.189)" fill="#1b1b1b"></path><path id="Path_835" data-name="Path 835" d="M175.238,20.672a6.291,6.291,0,0,0,3.523-1.113,11.156,11.156,0,0,0,3.707-4.414,10.955,10.955,0,0,0,1.307-4.782,4.983,4.983,0,0,0-.4-2.1,3.646,3.646,0,0,0-3.872-2.3,7,7,0,0,0-3.814,1.752,12.872,12.872,0,0,0-3.93,6.824,6.183,6.183,0,0,0,.155,3.727,3.669,3.669,0,0,0,3.32,2.41Zm-1.316-4.027a22.128,22.128,0,0,1,2.633-6.756,8.05,8.05,0,0,1,1.762-2.149,2.781,2.781,0,0,1,1.578-.784,1.789,1.789,0,0,1,.223-.01c.823,0,1.287.455,1.365,1.355a1.759,1.759,0,0,1,0,.319v.155a11.423,11.423,0,0,1-.6,3.243,23.13,23.13,0,0,1-1.994,4.462,8.976,8.976,0,0,1-1.858,2.4,2.9,2.9,0,0,1-1.655.794,1.27,1.27,0,0,1-1.442-1A4.012,4.012,0,0,1,173.922,16.645Z" transform="translate(-5.497 -0.19)" fill="#1b1b1b"></path><path id="Path_836" data-name="Path 836" d="M171.336,6.544l.261-.6-.145-.223H168.2c.107-.261.194-.474.271-.678.174-.436.31-.784.542-1.278a4.687,4.687,0,0,1,1.026-1.433,3.016,3.016,0,0,1,2.817-.716c.155.058.31.116.465.184s.329.136.532.2a1.859,1.859,0,0,0,.736.136c.707-.019,1.152-.358,1.21-.929a.884.884,0,0,0-.455-.929,2.063,2.063,0,0,0-.813-.261,7.6,7.6,0,0,0-5.179,1.491,12.578,12.578,0,0,0-3.562,4.211h-2.372a.332.332,0,0,0-.31.223l-.174.5-.019.1.136.194h2.226l-.058.136c-.184.436-.348.852-.494,1.278-.639,1.888-1.258,3.785-1.888,5.672-.407,1.229-.813,2.459-1.229,3.688-.1.3-.194.6-.3.9a26.952,26.952,0,0,1-1.471,3.852,6.109,6.109,0,0,1-1.82,2.352c-.8.59-1.675,1.094-2.584.668a7.045,7.045,0,0,0-.881-.358,3.439,3.439,0,0,0-1.084-.136,1.026,1.026,0,0,0-.716.339,1.071,1.071,0,0,0-.261.765,1.114,1.114,0,0,0,1.181,1.007h.077a8.7,8.7,0,0,0,1.578-.145,7.694,7.694,0,0,0,4.433-2.381,19.309,19.309,0,0,0,4.607-7.415c.9-2.6,1.791-5.275,2.652-7.84l.8-2.391h3.233A.29.29,0,0,0,171.336,6.544Z" transform="translate(-4.886 0)" fill="#1b1b1b"></path></g></svg> 